# xmcd CD database file generated by OrangeCD 5.2
#
# Track frame offsets:
#	150
#	11400
#	23475
#	36952
#	49612
#	62267
#	76435
#	87707
#	110382
#	122492
#	135675
#	146675
#	155900
#	167645
#	178290
#	189300
#	197972
#	206982
#	218060
#	228452
#	238107
#	248960
#	259752
#	270082
#	283500
#	295327
#	304335
#	314167
#
# Disc length: 4335 seconds
#
# Revision: 2
# Processed by: cddbd v1.5.1PL0 Copyright (c) Steve Scherf et al.
# Submitted via: OrangeCD 5.2
#
DISCID=a210ed1c
DTITLE=Big Joe Turner - Rhythm And Blues Years
DYEAR=1986
DGENRE=Blues
TTITLE0=Don't You Cry
TTITLE1=Poor Lover's Blues
TTITLE2=Still In Love
TTITLE3=TV Mama
TTITLE4=Married Woman
TTITLE5=You Know I Love You
TTITLE6=Midnight Cannonball
TTITLE7=In The Evening
TTITLE8=Morning Noon And Night
TTITLE9=Ti-Ri-Lee
TTITLE10=Lipstick, Powder, and Paint
TTITLE11=Rock A While
TTITLE12=After A While
TTITLE13=Trouble In Mind
TTITLE14=World Of Trouble
TTITLE15=Love Roller Coaster
TTITLE16=I Need A Girl
TTITLE17=Teenage Letter
TTITLE18=Wee Baby Blues
TTITLE19=(We're Gonna) Jump For Joy
TTITLE20=Sweet Sue
TTITLE21=My Reasons For Living
TTITLE22=Love Oh Careless Love
TTITLE23=Got You On My Mind
TTITLE24=Chains Of Love
TTITLE25=My Little Honeydripper
TTITLE26=Tomorrow Night
TTITLE27=Honey, Hush
EXTD=
EXTT0=
EXTT1=
EXTT2=
EXTT3=
EXTT4=
EXTT5=
EXTT6=
EXTT7=
EXTT8=
EXTT9=
EXTT10=
EXTT11=
EXTT12=
EXTT13=
EXTT14=
EXTT15=
EXTT16=
EXTT17=
EXTT18=
EXTT19=
EXTT20=
EXTT21=
EXTT22=
EXTT23=
EXTT24=
EXTT25=
EXTT26=
EXTT27=
PLAYORDER=
